<svg aria-roledescription="er" role="graphics-document document" viewBox="0 0 860.2671508789062 778" style="max-width: 860.267px; background-color: white;" xmlns:xlink="http://www.w3.org/1999/xlink" xmlns="http://www.w3.org/2000/svg" width="100%" id="my-svg"><style>#my-svg{font-family:"trebuchet ms",verdana,arial,sans-serif;font-size:16px;fill:#000000;}#my-svg .error-icon{fill:#552222;}#my-svg .error-text{fill:#552222;stroke:#552222;}#my-svg .edge-thickness-normal{stroke-width:2px;}#my-svg .edge-thickness-thick{stroke-width:3.5px;}#my-svg .edge-pattern-solid{stroke-dasharray:0;}#my-svg .edge-pattern-dashed{stroke-dasharray:3;}#my-svg .edge-pattern-dotted{stroke-dasharray:2;}#my-svg .marker{fill:#666;stroke:#666;}#my-svg .marker.cross{stroke:#666;}#my-svg svg{font-family:"trebuchet ms",verdana,arial,sans-serif;font-size:16px;}#my-svg .entityBox{fill:#eee;stroke:#999;}#my-svg .attributeBoxOdd{fill:#ffffff;stroke:#999;}#my-svg .attributeBoxEven{fill:#f2f2f2;stroke:#999;}#my-svg .relationshipLabelBox{fill:hsl(-160, 0%, 93.3333333333%);opacity:0.7;background-color:hsl(-160, 0%, 93.3333333333%);}#my-svg .relationshipLabelBox rect{opacity:0.5;}#my-svg .relationshipLine{stroke:#666;}#my-svg .entityTitleText{text-anchor:middle;font-size:18px;fill:#000000;}#my-svg #MD_PARENT_START{fill:#f5f5f5!important;stroke:#666!important;stroke-width:1;}#my-svg #MD_PARENT_END{fill:#f5f5f5!important;stroke:#666!important;stroke-width:1;}#my-svg :root{--mermaid-font-family:"trebuchet ms",verdana,arial,sans-serif;}</style><g/><defs><marker orient="auto" markerHeight="240" markerWidth="190" refY="7" refX="0" id="MD_PARENT_START"><path d="M 18,7 L9,13 L1,7 L9,1 Z"/></marker></defs><defs><marker orient="auto" markerHeight="28" markerWidth="20" refY="7" refX="19" id="MD_PARENT_END"><path d="M 18,7 L9,13 L1,7 L9,1 Z"/></marker></defs><defs><marker orient="auto" markerHeight="18" markerWidth="18" refY="9" refX="0" id="ONLY_ONE_START"><path d="M9,0 L9,18 M15,0 L15,18" fill="none" stroke="gray"/></marker></defs><defs><marker orient="auto" markerHeight="18" markerWidth="18" refY="9" refX="18" id="ONLY_ONE_END"><path d="M3,0 L3,18 M9,0 L9,18" fill="none" stroke="gray"/></marker></defs><defs><marker orient="auto" markerHeight="18" markerWidth="30" refY="9" refX="0" id="ZERO_OR_ONE_START"><circle r="6" cy="9" cx="21" fill="white" stroke="gray"/><path d="M9,0 L9,18" fill="none" stroke="gray"/></marker></defs><defs><marker orient="auto" markerHeight="18" markerWidth="30" refY="9" refX="30" id="ZERO_OR_ONE_END"><circle r="6" cy="9" cx="9" fill="white" stroke="gray"/><path d="M21,0 L21,18" fill="none" stroke="gray"/></marker></defs><defs><marker orient="auto" markerHeight="36" markerWidth="45" refY="18" refX="18" id="ONE_OR_MORE_START"><path d="M0,18 Q 18,0 36,18 Q 18,36 0,18 M42,9 L42,27" fill="none" stroke="gray"/></marker></defs><defs><marker orient="auto" markerHeight="36" markerWidth="45" refY="18" refX="27" id="ONE_OR_MORE_END"><path d="M3,9 L3,27 M9,18 Q27,0 45,18 Q27,36 9,18" fill="none" stroke="gray"/></marker></defs><defs><marker orient="auto" markerHeight="36" markerWidth="57" refY="18" refX="18" id="ZERO_OR_MORE_START"><circle r="6" cy="18" cx="48" fill="white" stroke="gray"/><path d="M0,18 Q18,0 36,18 Q18,36 0,18" fill="none" stroke="gray"/></marker></defs><defs><marker orient="auto" markerHeight="36" markerWidth="57" refY="18" refX="39" id="ZERO_OR_MORE_END"><circle r="6" cy="18" cx="9" fill="white" stroke="gray"/><path d="M21,18 Q39,0 57,18 Q39,36 21,18" fill="none" stroke="gray"/></marker></defs><path style="stroke: gray; fill: none;" marker-start="url(#ZERO_OR_MORE_START)" marker-end="url(#ZERO_OR_MORE_END)" d="M482.77603912353516,82.11763429283221L446.4098409016927,94.93136191069351C410.0436426798503,107.7450895285548,337.31124623616535,133.37254476427742,308.1600552293301,154.51960571547204C279.0088642224949,175.66666666666666,293.43887865250935,192.33333333333334,300.6538858675165,200.66666666666666L307.86889308252375,209" class="er relationshipLine"/><path style="stroke: gray; fill: none;" marker-start="url(#ZERO_OR_MORE_START)" marker-end="url(#ZERO_OR_MORE_END)" d="M532.7760391235352,109L532.7760391235352,117.33333333333333C532.7760391235352,125.66666666666667,532.7760391235352,142.33333333333334,532.7760391235352,169.91666666666666C532.7760391235352,197.5,532.7760391235352,236,532.7760391235352,274.5C532.7760391235352,313,532.7760391235352,351.5,549.4427057902018,381.25C566.1093724568685,411,599.4427057902018,432,616.1093724568685,442.5L632.7760391235352,453" class="er relationshipLine"/><path style="stroke: gray; fill: none;" marker-start="url(#ZERO_OR_ONE_START)" marker-end="url(#ONLY_ONE_END)" d="M296.3816604614258,305.08005490001517L264.8180503845215,319.23337908334594C233.2544403076172,333.38670326667676,170.1272201538086,361.69335163333835,138.5636100769043,384.3466758166692C107,407,107,424,107,432.5L107,441" class="er relationshipLine"/><path style="stroke: gray; fill: none;" marker-start="url(#ZERO_OR_MORE_START)" marker-end="url(#ZERO_OR_MORE_END)" d="M432.77603912353516,303.8693434572648L466.10937245686847,318.224452881054C499.44270579020184,332.5795623048432,566.1093724568685,361.28978115242154,604.7778027919654,385.7282239095441C643.4462331270624,410.1666666666667,654.1164271305898,430.3333333333333,659.4515241323535,440.4166666666667L664.7866211341171,450.5" class="er relationshipLine"/><path style="stroke: gray; fill: none;" marker-start="url(#ZERO_OR_MORE_START)" marker-end="url(#ZERO_OR_MORE_END)" d="M315.3885610010717,340L309.1302545390604,348.3333333333333C302.8719480770491,356.6666666666667,290.3553351530265,373.3333333333333,290.3438295930437,390C290.332324033061,406.6666666666667,302.8259258371182,423.3333333333333,309.07272673914673,431.6666666666667L315.3195276411753,440" class="er relationshipLine"/><path style="stroke: gray; fill: none;" marker-start="url(#ZERO_OR_MORE_START)" marker-end="url(#ZERO_OR_MORE_END)" d="M383.9161480660046,209L386.3763641313385,200.66666666666666C388.8365801966723,192.33333333333334,393.7570123273401,175.66666666666666,410.2336608369285,157.45587809761074C426.7103093465169,139.24508952855481,454.74317423502606,119.49017905710961,468.7596066792806,109.61272382138702L482.77603912353516,99.73526858566441" class="er relationshipLine"/><path style="stroke: gray; fill: none;" marker-start="url(#ZERO_OR_ONE_START)" marker-end="url(#ONLY_ONE_END)" d="M372.2224180029814,440L376.63158907881916,431.6666666666667C381.0407601546569,423.3333333333333,389.8591023063323,406.6666666666667,391.80805731683625,390C393.7570123273401,373.3333333333333,388.8365801966723,356.6666666666667,386.3763641313385,348.3333333333333L383.9161480660046,340" class="er relationshipLine"/><path style="stroke: gray; fill: none;" marker-start="url(#ZERO_OR_ONE_START)" marker-end="url(#ONLY_ONE_END)" d="M348.6774444580078,529L348.6774444580078,537.3333333333334C348.6774444580078,545.6666666666666,348.6774444580078,562.3333333333334,348.6774444580078,579C348.6774444580078,595.6666666666666,348.6774444580078,612.3333333333334,348.6774444580078,620.6666666666666L348.6774444580078,629" class="er relationshipLine"/><path style="stroke: gray; fill: none;" marker-start="url(#ZERO_OR_MORE_START)" marker-end="url(#ZERO_OR_MORE_END)" d="M700.7654571129532,450.5L706.1005541147169,440.4166666666667C711.4356511164806,430.3333333333333,722.1058451200079,410.1666666666667,677.4409421217715,384.3988029584761C632.7760391235352,358.6309392502855,532.7760391235352,327.26187850057096,482.77603912353516,311.5773481257137L432.77603912353516,295.8928177508564" class="er relationshipLine"/><path style="stroke: gray; fill: none;" marker-start="url(#ZERO_OR_MORE_START)" marker-end="url(#ZERO_OR_MORE_END)" d="M732.7760391235352,453L749.4427057902018,442.5C766.1093724568685,432,799.4427057902018,411,816.1093724568685,381.25C832.7760391235352,351.5,832.7760391235352,313,832.7760391235352,274.5C832.7760391235352,236,832.7760391235352,197.5,791.1093724568685,165.125C749.4427057902018,132.75,666.1093724568685,106.5,624.4427057902018,93.375L582.7760391235352,80.25" class="er relationshipLine"/><g transform="translate(280.3528747558594,629 )" id="entity-Role-8dbdbbc4-0419-5464-aae6-f142fb2ece67"><rect height="129" width="136.64913940429688" y="0" x="0" class="er entityBox"/><text style="dominant-baseline: middle; text-anchor: middle; font-size: 12px;" transform="translate(68.32456970214844,12)" y="0" x="0" id="text-entity-Role-8dbdbbc4-0419-5464-aae6-f142fb2ece67" class="er entityLabel">Role</text><rect height="21" width="68.32456970214844" y="24" x="0" class="er attributeBoxOdd"/><text style="dominant-baseline: middle; font-size: 10.2px;" transform="translate(5,34.5)" y="0" x="0" id="text-entity-Role-8dbdbbc4-0419-5464-aae6-f142fb2ece67-attr-1-type" class="er entityLabel">FRONTEND</text><rect height="21" width="68.32456970214844" y="24" x="68.32456970214844" class="er attributeBoxOdd"/><text style="dominant-baseline: middle; font-size: 10.2px;" transform="translate(73.32456970214844,34.5)" y="0" x="0" id="text-entity-Role-8dbdbbc4-0419-5464-aae6-f142fb2ece67-attr-1-name" class="er entityLabel">FRONTEND</text><rect height="21" width="68.32456970214844" y="45" x="0" class="er attributeBoxEven"/><text style="dominant-baseline: middle; font-size: 10.2px;" transform="translate(5,55.5)" y="0" x="0" id="text-entity-Role-8dbdbbc4-0419-5464-aae6-f142fb2ece67-attr-2-type" class="er entityLabel">BACKEND</text><rect height="21" width="68.32456970214844" y="45" x="68.32456970214844" class="er attributeBoxEven"/><text style="dominant-baseline: middle; font-size: 10.2px;" transform="translate(73.32456970214844,55.5)" y="0" x="0" id="text-entity-Role-8dbdbbc4-0419-5464-aae6-f142fb2ece67-attr-2-name" class="er entityLabel">BACKEND</text><rect height="21" width="68.32456970214844" y="66" x="0" class="er attributeBoxOdd"/><text style="dominant-baseline: middle; font-size: 10.2px;" transform="translate(5,76.5)" y="0" x="0" id="text-entity-Role-8dbdbbc4-0419-5464-aae6-f142fb2ece67-attr-3-type" class="er entityLabel">FULLSTACK</text><rect height="21" width="68.32456970214844" y="66" x="68.32456970214844" class="er attributeBoxOdd"/><text style="dominant-baseline: middle; font-size: 10.2px;" transform="translate(73.32456970214844,76.5)" y="0" x="0" id="text-entity-Role-8dbdbbc4-0419-5464-aae6-f142fb2ece67-attr-3-name" class="er entityLabel">FULLSTACK</text><rect height="21" width="68.32456970214844" y="87" x="0" class="er attributeBoxEven"/><text style="dominant-baseline: middle; font-size: 10.2px;" transform="translate(5,97.5)" y="0" x="0" id="text-entity-Role-8dbdbbc4-0419-5464-aae6-f142fb2ece67-attr-4-type" class="er entityLabel">DESIGNER</text><rect height="21" width="68.32456970214844" y="87" x="68.32456970214844" class="er attributeBoxEven"/><text style="dominant-baseline: middle; font-size: 10.2px;" transform="translate(73.32456970214844,97.5)" y="0" x="0" id="text-entity-Role-8dbdbbc4-0419-5464-aae6-f142fb2ece67-attr-4-name" class="er entityLabel">DESIGNER</text><rect height="21" width="68.32456970214844" y="108" x="0" class="er attributeBoxOdd"/><text style="dominant-baseline: middle; font-size: 10.2px;" transform="translate(5,118.5)" y="0" x="0" id="text-entity-Role-8dbdbbc4-0419-5464-aae6-f142fb2ece67-attr-5-type" class="er entityLabel">MOBILE</text><rect height="21" width="68.32456970214844" y="108" x="68.32456970214844" class="er attributeBoxOdd"/><text style="dominant-baseline: middle; font-size: 10.2px;" transform="translate(73.32456970214844,118.5)" y="0" x="0" id="text-entity-Role-8dbdbbc4-0419-5464-aae6-f142fb2ece67-attr-5-name" class="er entityLabel">MOBILE</text></g><g transform="translate(20,441 )" id="entity-Status-07219c5b-eba2-5891-af91-1e86cbd77781"><rect height="87" width="174" y="0" x="0" class="er entityBox"/><text style="dominant-baseline: middle; text-anchor: middle; font-size: 12px;" transform="translate(87,12)" y="0" x="0" id="text-entity-Status-07219c5b-eba2-5891-af91-1e86cbd77781" class="er entityLabel">Status</text><rect height="21" width="87" y="24" x="0" class="er attributeBoxOdd"/><text style="dominant-baseline: middle; font-size: 10.2px;" transform="translate(5,34.5)" y="0" x="0" id="text-entity-Status-07219c5b-eba2-5891-af91-1e86cbd77781-attr-1-type" class="er entityLabel">OPEN</text><rect height="21" width="87" y="24" x="87" class="er attributeBoxOdd"/><text style="dominant-baseline: middle; font-size: 10.2px;" transform="translate(92,34.5)" y="0" x="0" id="text-entity-Status-07219c5b-eba2-5891-af91-1e86cbd77781-attr-1-name" class="er entityLabel">OPEN</text><rect height="21" width="87" y="45" x="0" class="er attributeBoxEven"/><text style="dominant-baseline: middle; font-size: 10.2px;" transform="translate(5,55.5)" y="0" x="0" id="text-entity-Status-07219c5b-eba2-5891-af91-1e86cbd77781-attr-2-type" class="er entityLabel">DEVELOPMENT</text><rect height="21" width="87" y="45" x="87" class="er attributeBoxEven"/><text style="dominant-baseline: middle; font-size: 10.2px;" transform="translate(92,55.5)" y="0" x="0" id="text-entity-Status-07219c5b-eba2-5891-af91-1e86cbd77781-attr-2-name" class="er entityLabel">DEVELOPMENT</text><rect height="21" width="87" y="66" x="0" class="er attributeBoxOdd"/><text style="dominant-baseline: middle; font-size: 10.2px;" transform="translate(5,76.5)" y="0" x="0" id="text-entity-Status-07219c5b-eba2-5891-af91-1e86cbd77781-attr-3-type" class="er entityLabel">FINISHED</text><rect height="21" width="87" y="66" x="87" class="er attributeBoxOdd"/><text style="dominant-baseline: middle; font-size: 10.2px;" transform="translate(92,76.5)" y="0" x="0" id="text-entity-Status-07219c5b-eba2-5891-af91-1e86cbd77781-attr-3-name" class="er entityLabel">FINISHED</text></g><g transform="translate(482.77603912353516,20 )" id="entity-User-818c511a-4a32-5484-ba70-875d765a9175"><rect height="89" width="100" y="0" x="0" class="er entityBox"/><text style="dominant-baseline: middle; text-anchor: middle; font-size: 12px;" transform="translate(50,12)" y="0" x="0" id="text-entity-User-818c511a-4a32-5484-ba70-875d765a9175" class="er entityLabel">User</text><rect height="23" width="38.358744303385414" y="24" x="0" class="er attributeBoxOdd"/><text style="dominant-baseline: middle; font-size: 10.2px;" transform="translate(5,35.5)" y="0" x="0" id="text-entity-User-818c511a-4a32-5484-ba70-875d765a9175-attr-1-type" class="er entityLabel">String</text><rect height="23" width="37.22956339518229" y="24" x="38.358744303385414" class="er attributeBoxOdd"/><text style="dominant-baseline: middle; font-size: 10.2px;" transform="translate(43.358744303385414,35.5)" y="0" x="0" id="text-entity-User-818c511a-4a32-5484-ba70-875d765a9175-attr-1-name" class="er entityLabel">id</text><rect height="23" width="24.411692301432293" y="24" x="75.5883076985677" class="er attributeBoxOdd"/><text style="dominant-baseline: middle; font-size: 10.2px;" transform="translate(80.5883076985677,35.5)" y="0" x="0" id="text-entity-User-818c511a-4a32-5484-ba70-875d765a9175-attr-1-comment" class="er entityLabel">🗝️</text><rect height="21" width="38.358744303385414" y="47" x="0" class="er attributeBoxEven"/><text style="dominant-baseline: middle; font-size: 10.2px;" transform="translate(5,57.5)" y="0" x="0" id="text-entity-User-818c511a-4a32-5484-ba70-875d765a9175-attr-2-type" class="er entityLabel">String</text><rect height="21" width="37.22956339518229" y="47" x="38.358744303385414" class="er attributeBoxEven"/><text style="dominant-baseline: middle; font-size: 10.2px;" transform="translate(43.358744303385414,57.5)" y="0" x="0" id="text-entity-User-818c511a-4a32-5484-ba70-875d765a9175-attr-2-name" class="er entityLabel">name</text><rect height="21" width="24.411692301432293" y="47" x="75.5883076985677" class="er attributeBoxEven"/><text style="dominant-baseline: middle; font-size: 10.2px;" transform="translate(80.5883076985677,57.5)" y="0" x="0" id="text-entity-User-818c511a-4a32-5484-ba70-875d765a9175-attr-2-comment" class="er entityLabel"/><rect height="21" width="38.358744303385414" y="68" x="0" class="er attributeBoxOdd"/><text style="dominant-baseline: middle; font-size: 10.2px;" transform="translate(5,78.5)" y="0" x="0" id="text-entity-User-818c511a-4a32-5484-ba70-875d765a9175-attr-3-type" class="er entityLabel">String</text><rect height="21" width="37.22956339518229" y="68" x="38.358744303385414" class="er attributeBoxOdd"/><text style="dominant-baseline: middle; font-size: 10.2px;" transform="translate(43.358744303385414,78.5)" y="0" x="0" id="text-entity-User-818c511a-4a32-5484-ba70-875d765a9175-attr-3-name" class="er entityLabel">email</text><rect height="21" width="24.411692301432293" y="68" x="75.5883076985677" class="er attributeBoxOdd"/><text style="dominant-baseline: middle; font-size: 10.2px;" transform="translate(80.5883076985677,78.5)" y="0" x="0" id="text-entity-User-818c511a-4a32-5484-ba70-875d765a9175-attr-3-comment" class="er entityLabel"/></g><g transform="translate(296.3816604614258,209 )" id="entity-Project-c2395ed5-a5fa-58df-9cbe-a2926add311c"><rect height="131" width="136.39437866210938" y="0" x="0" class="er entityBox"/><text style="dominant-baseline: middle; text-anchor: middle; font-size: 12px;" transform="translate(68.19718933105469,12)" y="0" x="0" id="text-entity-Project-c2395ed5-a5fa-58df-9cbe-a2926add311c" class="er entityLabel">Project</text><rect height="23" width="54.113128662109375" y="24" x="0" class="er attributeBoxOdd"/><text style="dominant-baseline: middle; font-size: 10.2px;" transform="translate(5,35.5)" y="0" x="0" id="text-entity-Project-c2395ed5-a5fa-58df-9cbe-a2926add311c-attr-1-type" class="er entityLabel">String</text><rect height="23" width="59.28125" y="24" x="54.113128662109375" class="er attributeBoxOdd"/><text style="dominant-baseline: middle; font-size: 10.2px;" transform="translate(59.113128662109375,35.5)" y="0" x="0" id="text-entity-Project-c2395ed5-a5fa-58df-9cbe-a2926add311c-attr-1-name" class="er entityLabel">id</text><rect height="23" width="23" y="24" x="113.39437866210938" class="er attributeBoxOdd"/><text style="dominant-baseline: middle; font-size: 10.2px;" transform="translate(118.39437866210938,35.5)" y="0" x="0" id="text-entity-Project-c2395ed5-a5fa-58df-9cbe-a2926add311c-attr-1-comment" class="er entityLabel">🗝️</text><rect height="21" width="54.113128662109375" y="47" x="0" class="er attributeBoxEven"/><text style="dominant-baseline: middle; font-size: 10.2px;" transform="translate(5,57.5)" y="0" x="0" id="text-entity-Project-c2395ed5-a5fa-58df-9cbe-a2926add311c-attr-2-type" class="er entityLabel">String</text><rect height="21" width="59.28125" y="47" x="54.113128662109375" class="er attributeBoxEven"/><text style="dominant-baseline: middle; font-size: 10.2px;" transform="translate(59.113128662109375,57.5)" y="0" x="0" id="text-entity-Project-c2395ed5-a5fa-58df-9cbe-a2926add311c-attr-2-name" class="er entityLabel">name</text><rect height="21" width="23" y="47" x="113.39437866210938" class="er attributeBoxEven"/><text style="dominant-baseline: middle; font-size: 10.2px;" transform="translate(118.39437866210938,57.5)" y="0" x="0" id="text-entity-Project-c2395ed5-a5fa-58df-9cbe-a2926add311c-attr-2-comment" class="er entityLabel"/><rect height="21" width="54.113128662109375" y="68" x="0" class="er attributeBoxOdd"/><text style="dominant-baseline: middle; font-size: 10.2px;" transform="translate(5,78.5)" y="0" x="0" id="text-entity-Project-c2395ed5-a5fa-58df-9cbe-a2926add311c-attr-3-type" class="er entityLabel">String</text><rect height="21" width="59.28125" y="68" x="54.113128662109375" class="er attributeBoxOdd"/><text style="dominant-baseline: middle; font-size: 10.2px;" transform="translate(59.113128662109375,78.5)" y="0" x="0" id="text-entity-Project-c2395ed5-a5fa-58df-9cbe-a2926add311c-attr-3-name" class="er entityLabel">description</text><rect height="21" width="23" y="68" x="113.39437866210938" class="er attributeBoxOdd"/><text style="dominant-baseline: middle; font-size: 10.2px;" transform="translate(118.39437866210938,78.5)" y="0" x="0" id="text-entity-Project-c2395ed5-a5fa-58df-9cbe-a2926add311c-attr-3-comment" class="er entityLabel"/><rect height="21" width="54.113128662109375" y="89" x="0" class="er attributeBoxEven"/><text style="dominant-baseline: middle; font-size: 10.2px;" transform="translate(5,99.5)" y="0" x="0" id="text-entity-Project-c2395ed5-a5fa-58df-9cbe-a2926add311c-attr-4-type" class="er entityLabel">DateTime</text><rect height="21" width="59.28125" y="89" x="54.113128662109375" class="er attributeBoxEven"/><text style="dominant-baseline: middle; font-size: 10.2px;" transform="translate(59.113128662109375,99.5)" y="0" x="0" id="text-entity-Project-c2395ed5-a5fa-58df-9cbe-a2926add311c-attr-4-name" class="er entityLabel">createdAt</text><rect height="21" width="23" y="89" x="113.39437866210938" class="er attributeBoxEven"/><text style="dominant-baseline: middle; font-size: 10.2px;" transform="translate(118.39437866210938,99.5)" y="0" x="0" id="text-entity-Project-c2395ed5-a5fa-58df-9cbe-a2926add311c-attr-4-comment" class="er entityLabel"/><rect height="21" width="54.113128662109375" y="110" x="0" class="er attributeBoxOdd"/><text style="dominant-baseline: middle; font-size: 10.2px;" transform="translate(5,120.5)" y="0" x="0" id="text-entity-Project-c2395ed5-a5fa-58df-9cbe-a2926add311c-attr-5-type" class="er entityLabel">Status</text><rect height="21" width="59.28125" y="110" x="54.113128662109375" class="er attributeBoxOdd"/><text style="dominant-baseline: middle; font-size: 10.2px;" transform="translate(59.113128662109375,120.5)" y="0" x="0" id="text-entity-Project-c2395ed5-a5fa-58df-9cbe-a2926add311c-attr-5-name" class="er entityLabel">status</text><rect height="21" width="23" y="110" x="113.39437866210938" class="er attributeBoxOdd"/><text style="dominant-baseline: middle; font-size: 10.2px;" transform="translate(118.39437866210938,120.5)" y="0" x="0" id="text-entity-Project-c2395ed5-a5fa-58df-9cbe-a2926add311c-attr-5-comment" class="er entityLabel"/></g><g transform="translate(294,440 )" id="entity-Position-740fe22a-9a84-5b50-827f-3904f8d86e5d"><rect height="89" width="109.35488891601562" y="0" x="0" class="er entityBox"/><text style="dominant-baseline: middle; text-anchor: middle; font-size: 12px;" transform="translate(54.67744445800781,12)" y="0" x="0" id="text-entity-Position-740fe22a-9a84-5b50-827f-3904f8d86e5d" class="er entityLabel">Position</text><rect height="23" width="36.947052001953125" y="24" x="0" class="er attributeBoxOdd"/><text style="dominant-baseline: middle; font-size: 10.2px;" transform="translate(5,35.5)" y="0" x="0" id="text-entity-Position-740fe22a-9a84-5b50-827f-3904f8d86e5d-attr-1-type" class="er entityLabel">String</text><rect height="23" width="49.4078369140625" y="24" x="36.947052001953125" class="er attributeBoxOdd"/><text style="dominant-baseline: middle; font-size: 10.2px;" transform="translate(41.947052001953125,35.5)" y="0" x="0" id="text-entity-Position-740fe22a-9a84-5b50-827f-3904f8d86e5d-attr-1-name" class="er entityLabel">id</text><rect height="23" width="23" y="24" x="86.35488891601562" class="er attributeBoxOdd"/><text style="dominant-baseline: middle; font-size: 10.2px;" transform="translate(91.35488891601562,35.5)" y="0" x="0" id="text-entity-Position-740fe22a-9a84-5b50-827f-3904f8d86e5d-attr-1-comment" class="er entityLabel">🗝️</text><rect height="21" width="36.947052001953125" y="47" x="0" class="er attributeBoxEven"/><text style="dominant-baseline: middle; font-size: 10.2px;" transform="translate(5,57.5)" y="0" x="0" id="text-entity-Position-740fe22a-9a84-5b50-827f-3904f8d86e5d-attr-2-type" class="er entityLabel">Role</text><rect height="21" width="49.4078369140625" y="47" x="36.947052001953125" class="er attributeBoxEven"/><text style="dominant-baseline: middle; font-size: 10.2px;" transform="translate(41.947052001953125,57.5)" y="0" x="0" id="text-entity-Position-740fe22a-9a84-5b50-827f-3904f8d86e5d-attr-2-name" class="er entityLabel">role</text><rect height="21" width="23" y="47" x="86.35488891601562" class="er attributeBoxEven"/><text style="dominant-baseline: middle; font-size: 10.2px;" transform="translate(91.35488891601562,57.5)" y="0" x="0" id="text-entity-Position-740fe22a-9a84-5b50-827f-3904f8d86e5d-attr-2-comment" class="er entityLabel"/><rect height="21" width="36.947052001953125" y="68" x="0" class="er attributeBoxOdd"/><text style="dominant-baseline: middle; font-size: 10.2px;" transform="translate(5,78.5)" y="0" x="0" id="text-entity-Position-740fe22a-9a84-5b50-827f-3904f8d86e5d-attr-3-type" class="er entityLabel">String</text><rect height="21" width="49.4078369140625" y="68" x="36.947052001953125" class="er attributeBoxOdd"/><text style="dominant-baseline: middle; font-size: 10.2px;" transform="translate(41.947052001953125,78.5)" y="0" x="0" id="text-entity-Position-740fe22a-9a84-5b50-827f-3904f8d86e5d-attr-3-name" class="er entityLabel">projectId</text><rect height="21" width="23" y="68" x="86.35488891601562" class="er attributeBoxOdd"/><text style="dominant-baseline: middle; font-size: 10.2px;" transform="translate(91.35488891601562,78.5)" y="0" x="0" id="text-entity-Position-740fe22a-9a84-5b50-827f-3904f8d86e5d-attr-3-comment" class="er entityLabel"/></g><g transform="translate(632.7760391235352,450.5 )" id="entity-Technology-06ea2cf2-c3c7-52ea-ad0c-bb9077f9d7d6"><rect height="68" width="100" y="0" x="0" class="er entityBox"/><text style="dominant-baseline: middle; text-anchor: middle; font-size: 12px;" transform="translate(50,12)" y="0" x="0" id="text-entity-Technology-06ea2cf2-c3c7-52ea-ad0c-bb9077f9d7d6" class="er entityLabel">Technology</text><rect height="23" width="38.358744303385414" y="24" x="0" class="er attributeBoxOdd"/><text style="dominant-baseline: middle; font-size: 10.2px;" transform="translate(5,35.5)" y="0" x="0" id="text-entity-Technology-06ea2cf2-c3c7-52ea-ad0c-bb9077f9d7d6-attr-1-type" class="er entityLabel">String</text><rect height="23" width="37.22956339518229" y="24" x="38.358744303385414" class="er attributeBoxOdd"/><text style="dominant-baseline: middle; font-size: 10.2px;" transform="translate(43.358744303385414,35.5)" y="0" x="0" id="text-entity-Technology-06ea2cf2-c3c7-52ea-ad0c-bb9077f9d7d6-attr-1-name" class="er entityLabel">id</text><rect height="23" width="24.411692301432293" y="24" x="75.5883076985677" class="er attributeBoxOdd"/><text style="dominant-baseline: middle; font-size: 10.2px;" transform="translate(80.5883076985677,35.5)" y="0" x="0" id="text-entity-Technology-06ea2cf2-c3c7-52ea-ad0c-bb9077f9d7d6-attr-1-comment" class="er entityLabel">🗝️</text><rect height="21" width="38.358744303385414" y="47" x="0" class="er attributeBoxEven"/><text style="dominant-baseline: middle; font-size: 10.2px;" transform="translate(5,57.5)" y="0" x="0" id="text-entity-Technology-06ea2cf2-c3c7-52ea-ad0c-bb9077f9d7d6-attr-2-type" class="er entityLabel">String</text><rect height="21" width="37.22956339518229" y="47" x="38.358744303385414" class="er attributeBoxEven"/><text style="dominant-baseline: middle; font-size: 10.2px;" transform="translate(43.358744303385414,57.5)" y="0" x="0" id="text-entity-Technology-06ea2cf2-c3c7-52ea-ad0c-bb9077f9d7d6-attr-2-name" class="er entityLabel">name</text><rect height="21" width="24.411692301432293" y="47" x="75.5883076985677" class="er attributeBoxEven"/><text style="dominant-baseline: middle; font-size: 10.2px;" transform="translate(80.5883076985677,57.5)" y="0" x="0" id="text-entity-Technology-06ea2cf2-c3c7-52ea-ad0c-bb9077f9d7d6-attr-2-comment" class="er entityLabel"/></g><rect height="14" width="42.03125" y="119.49644470214844" x="341.6974792480469" class="er relationshipLabelBox"/><text style="text-anchor: middle; dominant-baseline: middle; font-size: 12px;" y="126.49644470214844" x="362.7131042480469" id="rel1" class="er relationshipLabel">projects</text><rect height="14" width="67.390625" y="294.9601745605469" x="499.3082275390625" class="er relationshipLabelBox"/><text style="text-anchor: middle; dominant-baseline: middle; font-size: 12px;" y="301.9601745605469" x="533.0035400390625" id="rel2" class="er relationshipLabel">technologies</text><rect height="14" width="65.375" y="349.9405212402344" x="152.492919921875" class="er relationshipLabelBox"/><text style="text-anchor: middle; dominant-baseline: middle; font-size: 12px;" y="356.9405212402344" x="185.180419921875" id="rel3" class="er relationshipLabel">enum:status</text><rect height="14" width="67.390625" y="354.3399658203125" x="526.9183959960938" class="er relationshipLabelBox"/><text style="text-anchor: middle; dominant-baseline: middle; font-size: 12px;" y="361.3399658203125" x="560.6137084960938" id="rel4" class="er relationshipLabel">technologies</text><rect height="14" width="47.375" y="382.9853210449219" x="266.6564025878906" class="er relationshipLabelBox"/><text style="text-anchor: middle; dominant-baseline: middle; font-size: 12px;" y="389.9853210449219" x="290.3439025878906" id="rel5" class="er relationshipLabel">positions</text><rect height="14" width="29.34375" y="138.3877410888672" x="407.7826843261719" class="er relationshipLabelBox"/><text style="text-anchor: middle; dominant-baseline: middle; font-size: 12px;" y="145.3877410888672" x="422.4545593261719" id="rel6" class="er relationshipLabel">users</text><rect height="14" width="36.68359375" y="384.49896240234375" x="373.27252197265625" class="er relationshipLabelBox"/><text style="text-anchor: middle; dominant-baseline: middle; font-size: 12px;" y="391.49896240234375" x="391.61431884765625" id="rel7" class="er relationshipLabel">project</text><rect height="14" width="53.6875" y="572" x="321.8337097167969" class="er relationshipLabelBox"/><text style="text-anchor: middle; dominant-baseline: middle; font-size: 12px;" y="579" x="348.6774597167969" id="rel8" class="er relationshipLabel">enum:role</text><rect height="14" width="42.03125" y="342.23187255859375" x="575.0869750976562" class="er relationshipLabelBox"/><text style="text-anchor: middle; dominant-baseline: middle; font-size: 12px;" y="349.23187255859375" x="596.1026000976562" id="rel9" class="er relationshipLabel">projects</text><rect height="14" width="29.34375" y="204.2813262939453" x="810.9234008789062" class="er relationshipLabelBox"/><text style="text-anchor: middle; dominant-baseline: middle; font-size: 12px;" y="211.2813262939453" x="825.5952758789062" id="rel10" class="er relationshipLabel">users</text></svg>